ply
format ascii 1.0
comment Created by Hugo, hand-crafted for debugging texture loading of ray-tracer.
element vertex 8
property float x
property float y
property float z
element face 12
property list uchar int vertex_indices
element texture 12
property list uchar float texture_coordinates
end_header
1 1 1
-1 1 1
1 1 -1
-1 1 -1
1 -1 1
-1 -1 1
1 -1 -1
-1 -1 -1
3 4 1 0
3 1 4 5
3 1 5 3
3 3 5 7
3 7 2 3
3 2 7 6
3 6 0 2
3 0 6 4
3 2 0 3
3 3 0 1
3 4 6 5
3 5 6 7
6 1 1 0 0 1 0
6 0 0 1 1 0 1
6 0 0 0 1 1 0
6 1 0 0 1 1 1
6 1 1 0 0 1 0
6 0 0 1 1 0 1
6 0 1 1 0 0 0
6 1 0 0 1 1 1
6 1 1 1 0 0 1
6 0 1 1 0 0 0
6 1 1 1 0 0 1
6 0 1 1 0 0 0
