ply
format ascii 1.0
comment Created by Blender 3.6.3 - www.blender.org
element vertex 422
property float x
property float y
property float z
property float s
property float t
element face 400
property list uchar uint vertex_indices
end_header
8.736990 -16.098900 -0.612909 0.447941 0.554378
9.631390 -14.249500 -3.368630 0.470054 0.523631
10.089500 -14.494100 2.324020 0.471251 0.586606
9.674590 -10.478600 -3.875280 0.511194 0.515549
10.135000 -9.137990 2.106950 0.530015 0.580622
5.857780 -13.654400 -7.568400 0.422214 0.461100
-3.448340 -15.043400 -7.639930 0.318588 0.457783
-1.737110 -13.013900 -8.750240 0.341168 0.435525
0.854376 -16.169701 -6.119220 0.362940 0.484530
5.857780 -13.654400 -7.568400 0.521543 0.766439
2.834790 -15.491800 -6.897140 0.525593 0.805906
0.854376 -16.169701 -6.119220 0.521543 0.830176
6.990070 -17.715599 3.909630 0.422117 0.604420
4.194270 -9.707280 -9.216790 0.412760 0.411420
8.334880 -6.733500 -5.320070 0.482663 0.400824
8.230710 -11.933500 -6.244290 0.456698 0.452918
5.944230 -17.246401 -3.587870 0.415129 0.521141
7.519380 -14.809300 -5.309760 0.445094 0.499132
5.857780 -13.654400 -7.568400 0.423376 0.462634
7.519380 -14.809300 -5.309760 0.438654 0.492351
2.834790 -15.491800 -6.897140 0.386045 0.476070
4.127140 -18.435301 2.627880 0.390076 0.589226
2.245540 -18.546600 -0.621019 0.370965 0.552516
-1.186270 -18.009399 -3.697900 0.336351 0.514884
9.631390 -14.249500 -3.368630 0.476945 0.491433
7.519380 -14.809300 -5.309760 0.445349 0.485210
9.631390 -14.249500 -3.368630 0.467700 0.522068
9.631390 -14.249500 -3.368630 0.482575 0.487900
9.674590 -10.478600 -3.875280 0.490662 0.446762
2.500440 -10.798000 -9.430830 0.391504 0.418239
3.584820 -2.804250 -7.765070 0.454005 0.305673
-0.949578 -1.329750 -7.556660 0.403819 0.289959
2.394650 0.421432 -4.883070 0.443086 0.257460
0.760976 2.133450 -2.637290 0.429172 0.224314
3.149780 0.424580 1.594070 0.476567 0.193091
4.997380 -0.325055 -0.374872 0.488557 0.221544
5.701320 -1.132820 -4.512570 0.482101 0.268195
6.879340 -2.898890 -6.365920 0.492586 0.297423
8.125360 -0.724408 -1.420830 0.518350 0.242816
8.424550 -2.043710 -4.860210 0.510447 0.282765
5.701320 -1.132820 -4.512570 0.487831 0.325012
8.424550 -2.043710 -4.860210 0.503412 0.352816
6.879340 -2.898890 -6.365920 0.477891 0.354430
2.117880 -18.848200 5.251340 0.618168 0.798632
4.416060 -20.794399 5.445850 0.619890 0.765424
2.802930 -20.331400 9.372460 0.664012 0.781767
0.812493 -16.969500 6.299570 0.629217 0.824063
0.208497 -18.018101 3.869490 0.346153 0.601202
4.853890 -19.468201 4.012080 0.598577 0.771097
0.208497 -18.018101 3.869490 0.607976 0.824210
4.127140 -18.435301 2.627880 0.583871 0.785588
0.208497 -18.018101 3.869490 0.345761 0.601000
-2.430340 -18.931900 1.510880 0.317677 0.572129
0.812493 -16.969500 6.299570 0.550656 0.794166
0.208497 -18.018101 3.869490 0.525593 0.777839
2.117880 -18.848200 5.251340 0.550656 0.766439
0.812493 -16.969500 6.299570 0.351369 0.630382
-3.032350 -17.195000 5.234570 0.309381 0.617128
8.918480 -17.246599 6.112430 0.441519 0.630705
6.990070 -17.715599 3.909630 0.594471 0.715351
8.918480 -17.246599 6.112430 0.621010 0.696298
8.088930 -19.388700 6.101630 0.626695 0.720963
10.089500 -14.494100 2.324020 0.019576 0.030386
7.749740 -13.963800 5.672490 0.037882 0.071919
8.918480 -17.246599 6.112430 0.000000 0.079839
-9.005470 -14.092900 4.386270 0.205983 0.562886
-10.269000 -17.031099 10.181400 0.191147 0.634295
-10.473400 -13.343200 10.180100 0.158813 0.609580
-7.452270 -17.666300 3.645430 0.246771 0.578575
-6.196430 -18.801399 4.945340 0.258665 0.598863
-5.983940 -20.449200 8.171180 0.255326 0.638705
-8.477240 -13.049100 4.867640 0.193226 0.557269
-2.430340 -18.931900 1.510880 0.308174 0.572311
-10.445100 -14.070200 1.670980 0.198156 0.522128
-8.299050 -17.476700 -0.173699 0.246095 0.531239
-7.452270 -17.666300 3.645430 0.227124 0.570000
-9.005470 -14.092900 4.386270 0.186488 0.553919
-10.299300 -13.814300 -3.936520 0.232694 0.470793
10.974800 -1.921740 -2.926000 0.927610 0.827230
11.503600 -4.642810 -1.275980 0.937971 0.793229
8.606380 -5.605190 1.252280 0.981290 0.787653
-0.949578 -1.329750 -7.556660 0.404278 0.301894
3.584820 -2.804250 -7.765070 0.441608 0.338935
9.052840 -2.446680 -4.630840 0.518925 0.284232
10.974800 -1.921740 -2.926000 0.544299 0.270412
8.606380 -5.605190 1.252280 0.554271 0.417568
9.052840 -2.446680 -4.630840 0.508474 0.359773
8.606380 -5.605190 1.252280 0.578526 0.327652
10.974800 -1.921740 -2.926000 0.892020 0.836086
8.125360 -0.724408 -1.420830 0.881318 0.872423
9.935810 -0.257014 -2.160080 0.874522 0.851336
8.334880 -6.733500 -5.320070 0.553277 0.495468
8.606380 -5.605190 1.252280 0.571201 0.566788
7.433180 0.831210 1.551430 0.521198 0.205181
-3.034560 1.949490 -2.403430 0.385533 0.221234
-5.710030 -3.590980 -7.260410 0.346237 0.298149
-7.792010 -1.491060 -3.626590 0.326302 0.250531
-9.732390 -0.622083 -2.600530 0.129275 0.956686
-10.746100 1.334950 -1.135310 0.151847 0.938223
-4.984820 0.625216 0.646884 0.177542 1.000000
-9.823450 0.516470 1.966570 0.057777 0.790785
-5.634980 -1.007870 2.199230 0.013390 0.769610
-10.746100 1.334950 -1.135310 0.085348 0.766439
-7.792010 -1.491060 -3.626590 0.119652 0.980853
-4.984820 0.625216 0.646884 0.351955 0.195217
-10.746100 1.334950 -1.135310 0.314980 0.208806
-5.634980 -1.007870 2.199230 0.256362 0.166950
-4.984820 0.625216 0.646884 0.278100 0.152981
-9.732390 -0.622083 -2.600530 0.310279 0.230040
-11.613200 -2.746250 -2.566710 0.281311 0.241798
-8.894880 -3.648380 -3.787640 0.304952 0.266658
-10.299300 -13.814300 -3.936520 0.228229 0.349742
-10.148900 -6.092840 -2.267880 0.271144 0.273994
-11.613200 -2.746250 -2.566710 0.101129 0.943076
-8.894880 -3.648380 -3.787640 0.099056 0.977319
-10.148900 -6.092840 -2.267880 0.066913 0.964527
-3.032350 -17.195000 5.234570 0.296823 0.616637
-4.542540 -18.580200 5.650620 0.274468 0.611056
-6.692020 -17.613600 -2.891930 0.274963 0.511758
-8.299050 -17.476700 -0.173699 0.249489 0.535506
-3.767780 -18.910200 -1.054800 0.303414 0.540786
6.990070 -17.715599 3.909630 0.594087 0.723530
4.416060 -20.794399 5.445850 0.618469 0.764117
4.853890 -19.468201 4.012080 0.599093 0.753583
4.127140 -18.435301 2.627880 0.578526 0.755394
-3.767780 -18.910200 -1.054800 0.305123 0.542823
-4.542540 -18.580200 5.650620 0.011831 0.739193
-5.983940 -20.449200 8.171180 0.038390 0.766439
-6.196430 -18.801399 4.945340 0.000000 0.755270
-3.032350 -17.195000 5.234570 0.008663 0.716371
-0.358819 -8.165980 -14.050600 0.202258 0.874133
1.006040 -7.998020 -13.206300 0.219689 0.877638
1.631140 -11.238400 -12.486500 0.218592 0.914840
-1.737110 -13.013900 -8.750240 0.336186 0.431409
-5.083620 -11.495800 -9.080550 0.298313 0.416630
-2.741090 -9.199370 -9.774250 0.322449 0.388659
1.391840 -7.032150 -10.062500 0.256156 0.876431
4.194270 -9.707280 -9.216790 0.275394 0.915662
2.500440 -10.798000 -9.430830 0.253529 0.920164
1.391840 -7.032150 -10.062500 0.369865 0.419739
-0.913060 -7.260560 -9.705150 0.350792 0.402330
-2.741090 -9.199370 -9.774250 0.345978 0.373356
-0.998679 -10.396100 -13.666000 0.202191 0.824079
-2.034120 -8.554770 -12.677300 0.226563 0.832231
-0.358819 -8.165980 -14.050600 0.209097 0.849054
-0.174905 -6.843710 -12.404300 0.229697 0.860059
-0.358819 -8.165980 -14.050600 0.206928 0.865257
-1.471200 -12.060800 -12.526200 0.202608 0.801251
-0.998679 -10.396100 -13.666000 0.190564 0.897257
-1.471200 -12.060800 -12.526200 0.183466 0.918958
-0.913060 -7.260560 -9.705150 0.259470 0.850821
-2.741090 -9.199370 -9.774250 0.248240 0.806454
-1.737110 -13.013900 -8.750240 0.227868 0.766439
-1.737110 -13.013900 -8.750240 0.183466 0.961968
2.500440 -10.798000 -9.430830 0.234377 0.946458
-2.741090 -9.199370 -9.774250 0.258477 0.821467
-4.110480 -17.328800 12.714300 0.149504 0.704857
-3.596560 -13.035000 13.555200 0.105942 0.683438
-5.168710 -15.574100 13.549400 0.138845 0.682929
-7.644510 -12.460600 13.362200 0.123404 0.641856
-9.341570 -14.978400 11.782600 0.160881 0.637645
-7.667860 -10.774800 12.136500 0.113163 0.621298
-7.667860 -10.774800 12.136500 0.115639 0.590678
-7.391180 -11.470400 9.253740 0.142559 0.571907
-4.110480 -17.328800 12.714300 0.090889 0.729587
-2.703900 -13.349400 7.781290 0.041737 0.677613
-5.967260 -11.278100 7.429830 0.150245 0.547505
-5.967260 -11.278100 7.429830 0.142301 0.232961
-9.005470 -14.092900 4.386270 0.155038 0.288143
-8.477240 -13.049100 4.867640 0.146949 0.276791
-9.304860 -7.034550 3.799360 0.213886 0.236779
-6.100060 -19.694901 10.765500 0.193745 0.692619
-10.269000 -17.031099 10.181400 0.191332 0.637780
-8.232440 -19.500401 9.798470 0.206313 0.669986
-4.110480 -17.328800 12.714300 0.154498 0.701622
-7.667860 -10.774800 12.136500 0.103829 0.629842
-4.829740 -12.008000 10.584500 0.078477 0.658343
-7.391180 -11.470400 9.253740 0.071150 0.626832
-6.100060 -19.694901 10.765500 0.067949 0.762680
-5.983940 -20.449200 8.171180 0.223124 0.697591
-8.232440 -19.500401 9.798470 0.224182 0.647346
-4.829740 -12.008000 10.584500 0.113710 0.557264
-5.967260 -11.278100 7.429830 0.048434 0.635376
8.780070 -19.616501 8.392920 0.652583 0.715352
5.486950 -19.042101 10.616600 0.680049 0.750031
5.841990 -20.632999 6.713300 0.633447 0.749261
3.359180 -15.897900 13.436400 0.713968 0.832040
6.132860 -14.986500 13.607900 0.733540 0.857640
5.375330 -14.188000 11.854700 0.712296 0.865943
9.963820 -18.394800 8.661940 0.653902 0.696421
3.132110 -14.641000 11.607400 0.694870 0.847515
4.088450 -11.971900 8.259340 0.669171 0.888460
0.812493 -16.969500 6.299570 0.026264 0.165602
1.134960 -14.226500 7.773540 0.057849 0.151736
-3.032350 -17.195000 5.234570 0.032238 0.209225
4.088450 -11.971900 8.259340 0.072745 0.113226
-2.703900 -13.349400 7.781290 0.079216 0.189499
-0.140297 -6.473140 8.667590 0.144284 0.140510
6.246720 -6.532580 7.247070 0.123203 0.071562
6.132860 -14.986500 13.607900 0.733540 0.733519
2.154210 -18.926100 11.740600 0.694917 0.785843
9.596710 -16.385099 11.385800 0.700080 0.699254
8.780070 -19.616501 8.392920 0.653246 0.714837
3.359180 -15.897900 13.436400 0.729941 0.765542
9.963820 -18.394800 8.661940 0.662575 0.698311
2.154210 -18.926100 11.740600 0.689765 0.799333
3.359180 -15.897900 13.436400 0.713837 0.831879
6.132860 -14.986500 13.607900 0.673043 0.614628
9.596710 -16.385099 11.385800 0.669728 0.662405
5.375330 -14.188000 11.854700 0.650264 0.613442
1.134960 -14.226500 7.773540 0.647381 0.853388
7.749740 -13.963800 5.672490 0.598433 0.664865
4.088450 -11.971900 8.259340 0.601681 0.610910
14.847000 -3.930780 -2.310520 0.898962 0.788042
15.765100 -2.729840 -0.310616 0.874037 0.776134
17.074301 -7.106530 2.041290 0.895836 0.723884
13.856200 -0.536947 -1.270210 0.863745 0.808261
15.392400 -8.242730 2.284430 0.917766 0.718740
15.511800 -7.323700 0.258738 0.913829 0.742967
16.284500 -6.094940 3.912430 0.872061 0.716151
15.392400 -8.242730 2.284430 0.894701 0.694566
17.074301 -7.106530 2.041290 0.897049 0.716968
13.779100 -6.299290 5.806590 0.847004 0.692174
14.621200 -3.309770 5.526810 0.832811 0.723467
15.414500 -2.006620 2.764280 0.845495 0.755844
12.172400 -2.807740 6.879670 0.805821 0.707579
11.016900 -0.034972 5.228030 0.786964 0.767290
12.172400 -2.807740 6.879670 0.792828 0.729975
14.621200 -3.309770 5.526810 0.824108 0.728426
11.221500 1.168870 2.156010 0.805714 0.798519
13.856200 -0.536947 -1.270210 0.856506 0.804956
15.392400 -8.242730 2.284430 0.928601 0.723364
10.640500 -5.508880 3.071200 0.976272 0.761464
13.779100 -6.299290 5.806590 0.975579 0.714776
7.252000 -4.648440 3.461720 0.787380 0.641029
10.640500 -5.508880 3.071200 0.824812 0.651092
8.822300 -1.658430 5.470800 0.772694 0.681762
12.172400 -2.807740 6.879670 0.754872 0.745348
11.016900 -0.034972 5.228030 0.777273 0.775761
8.822300 -1.658430 5.470800 0.749232 0.786968
10.740700 0.747756 -0.927025 0.826094 0.826595
10.740700 0.747756 -0.927025 0.856008 0.844774
11.503600 -4.642810 -1.275980 0.854162 0.610910
8.606380 -5.605190 1.252280 0.812396 0.623687
7.433180 0.831210 1.551430 0.780998 0.833012
-15.608600 3.608630 2.524730 0.124544 0.819143
-14.012000 4.530370 0.761832 0.123063 0.791075
-15.991600 5.147790 1.116820 0.142323 0.803976
-14.827900 4.201390 -0.338762 0.166674 0.884580
-17.034800 3.500460 0.106818 0.152960 0.862512
-15.991600 5.147790 1.116820 0.177107 0.864048
-16.795799 1.198560 1.583550 0.114475 0.854542
-14.804600 1.289260 3.233840 0.098864 0.830682
-15.608600 3.608630 2.524730 0.126554 0.825595
-14.266200 -2.330860 2.419950 0.065757 0.855393
-17.021500 1.419920 -0.404004 0.130522 0.869847
-17.034800 3.500460 0.106818 0.144495 0.850820
-14.964200 -2.569280 -0.409963 0.091473 0.900196
-9.823450 0.516470 1.966570 0.183466 0.957013
-14.012000 4.530370 0.761832 0.180419 0.891798
-7.451370 -3.372470 3.780150 0.005953 0.806046
-8.686460 -5.273440 3.298960 0.227894 0.220743
-7.451370 -3.372470 3.780150 0.232743 0.195672
-8.686460 -5.273440 3.298960 0.230983 0.224087
-15.991600 5.147790 1.116820 0.183466 0.868818
-15.991600 5.147790 1.116820 0.149866 0.827228
-14.266200 -2.330860 2.419950 0.070570 0.875673
-8.686460 -5.273440 3.298960 0.000000 0.830878
-10.148900 -6.092840 -2.267880 0.046347 0.952209
-8.686460 -5.273440 3.298960 0.005777 0.902634
4.209150 -0.843711 3.927620 0.733540 0.838999
4.997380 -0.325055 -0.374872 0.772132 0.868431
4.209150 -0.843711 3.927620 0.188160 0.032170
7.252000 -4.648440 3.461720 0.134703 0.025074
4.209150 -0.843711 3.927620 0.733540 0.644073
10.135000 -9.137990 2.106950 0.075568 0.011575
8.606380 -5.605190 1.252280 0.117445 0.000000
4.209150 -0.843711 3.927620 0.502375 0.175019
9.935810 -0.257014 -2.160080 0.830116 0.845821
8.125360 -0.724408 -1.420830 0.810639 0.856378
-6.278820 20.098301 3.225040 0.417448 0.795800
-4.104580 20.893400 1.190760 0.445664 0.776906
-7.759560 20.256300 1.944750 0.427995 0.814695
-3.767020 20.630600 2.510630 0.431906 0.770240
-8.336360 18.098200 2.912310 0.402860 0.824062
-7.759560 20.256300 1.944750 0.426477 0.836780
-7.354710 14.593400 1.335290 0.363980 0.844029
-7.162500 14.368600 3.255770 0.359623 0.823066
-4.912370 15.855500 3.877460 0.367855 0.793701
-4.912370 15.855500 3.877460 0.758447 0.288422
1.824050 15.803000 3.259280 0.799283 0.226063
-2.594260 16.021200 2.969480 0.779478 0.270716
-3.583200 16.493500 1.018270 0.829624 0.338495
1.664630 15.983500 0.808164 0.870984 0.379359
-6.137360 15.636500 0.264075 0.799826 0.330601
-3.583200 16.493500 1.018270 0.793815 0.290779
1.395430 16.170700 1.949440 0.810246 0.237325
1.664630 15.983500 0.808164 0.822949 0.240462
-6.980020 20.103901 0.111395 0.449792 0.811604
-3.767020 20.630600 2.510630 0.416959 0.766439
-6.980020 20.103901 0.111395 0.424561 0.858711
-4.104580 20.893400 1.190760 0.429479 0.893306
-3.583200 16.493500 1.018270 0.380626 0.892668
-2.594260 16.021200 2.969480 0.364308 0.766439
-6.137360 15.636500 0.264075 0.374579 0.862441
-3.767020 20.630600 2.510630 0.426538 0.908308
-2.594260 16.021200 2.969480 0.374539 0.916564
6.188170 19.465700 1.520710 0.347113 0.797331
4.457870 19.497900 0.753627 0.359623 0.814021
2.393040 19.342100 1.536030 0.356204 0.838171
4.457870 19.497900 0.753627 0.323781 0.877103
6.188170 19.465700 1.520710 0.331685 0.896405
4.692570 14.770800 0.167124 0.275394 0.897600
5.897150 19.129400 3.320750 0.328190 0.805032
2.784070 19.244499 3.020810 0.339258 0.837691
7.840980 17.926300 2.782830 0.324986 0.779354
2.784070 19.244499 3.020810 0.316256 0.837385
2.393040 19.342100 1.536030 0.315125 0.854300
1.395430 16.170700 1.949440 0.278745 0.848040
1.664630 15.983500 0.808164 0.277003 0.861007
5.374600 14.181600 3.682420 0.275561 0.789175
7.007090 13.351000 2.732030 0.275394 0.766439
1.824050 15.803000 3.259280 0.277115 0.832408
7.840980 17.926300 2.782830 0.325705 0.924280
7.007090 13.351000 2.732030 0.276540 0.938740
-0.308381 1.456680 5.493830 0.616894 0.137478
-3.164260 0.572725 3.704930 0.578526 0.138713
2.480760 2.078980 6.315500 0.648178 0.127743
6.081260 1.427550 3.123490 0.659123 0.075372
-3.346200 2.490830 6.814730 0.633143 0.580028
-3.164260 0.572725 3.704930 0.670525 0.564948
-0.308381 1.456680 5.493830 0.663890 0.602758
1.102130 2.951290 9.951040 0.521542 0.809184
0.543996 4.882970 10.549100 0.506078 0.826363
-2.016320 5.404800 10.454900 0.478422 0.818292
-2.619910 3.121890 9.735920 0.484304 0.791737
0.543996 4.882970 10.549100 0.492514 0.843419
1.102130 2.951290 9.951040 0.512833 0.854439
3.025500 5.370740 8.006780 0.483395 0.881865
2.480760 2.078980 6.315500 0.521542 0.897474
1.102130 2.951290 9.951040 0.660104 0.169999
-2.619910 3.121890 9.735920 0.626165 0.193221
-3.346200 2.490830 6.814730 0.599944 0.171753
-3.642150 5.850230 8.110180 0.449792 0.804405
-3.346200 2.490830 6.814730 0.461756 0.766439
-1.477440 7.413840 8.524390 0.451462 0.834134
1.165740 7.350570 8.406940 0.460784 0.861765
-10.445100 -14.070200 1.670980 0.179753 0.311295
0.760976 2.133450 -2.637290 0.588334 0.022325
4.882420 1.892710 -1.611210 0.634973 0.027006
3.149780 0.424580 1.594070 0.621730 0.068215
3.149780 0.424580 1.594070 0.621228 0.079043
1.369430 0.687505 3.771060 0.592368 0.090691
-7.339940 -11.822000 -7.915130 0.272089 0.427032
-5.083620 -11.495800 -9.080550 0.309632 0.379980
-7.339940 -11.822000 -7.915130 0.284435 0.367290
-4.720860 -5.944000 7.588040 0.175357 0.182430
-5.967260 -11.278100 7.429830 0.110977 0.218136
-4.720860 -5.944000 7.588040 0.163810 0.188900
-3.164260 0.572725 3.704930 0.244607 0.132577
4.209150 -0.843711 3.927620 0.198760 0.063669
0.760976 2.133450 -2.637290 0.427299 0.225165
1.369430 0.687505 3.771060 0.226464 0.086010
1.369430 0.687505 3.771060 0.468901 0.162927
-0.910859 8.185340 -5.161110 0.783464 0.459161
-6.512210 9.447610 -4.537220 0.735407 0.417441
0.677360 12.573100 -3.938610 0.821895 0.422444
-5.554990 13.548200 -3.128410 0.766432 0.379610
-5.554990 13.548200 -3.128410 0.776997 0.368638
0.493971 12.702500 7.300180 0.743185 0.211318
-6.712470 9.588890 7.735690 0.677543 0.267853
-1.477440 7.413840 8.524390 0.679880 0.204832
-9.264080 4.392110 -2.005710 0.673999 0.461194
-3.034560 1.949490 -2.403430 0.726234 0.513412
-4.984820 0.625216 0.646884 0.686831 0.529279
-6.182890 5.926290 -4.491330 0.720108 0.453285
5.721610 5.942940 -4.068520 0.833827 0.518824
0.760976 2.133450 -2.637290 0.764222 0.531207
-6.512210 9.447610 -4.537220 0.702808 0.431861
-6.182890 5.926290 -4.491330 0.665376 0.442713
-8.200140 10.392300 -3.135250 0.707693 0.405996
-9.264080 4.392110 -2.005710 0.639440 0.403780
-8.353410 10.500400 6.258030 0.683733 0.293438
-8.778530 5.018070 6.314190 0.624784 0.307452
-6.712470 9.588890 7.735690 0.669451 0.271327
-8.778530 5.018070 6.314190 0.620122 0.269568
-8.200140 10.392300 -3.135250 0.723406 0.394014
1.165740 7.350570 8.406940 0.692215 0.178408
5.526500 10.044100 -3.425540 0.858906 0.470334
4.692570 14.770800 0.167124 0.888741 0.411395
5.374600 14.181600 3.682420 0.806150 0.183352
5.356320 10.164100 7.003890 0.757670 0.152551
5.356320 10.164100 7.003890 0.742906 0.150793
8.877510 9.414400 0.629145 0.916252 0.481243
7.007090 13.351000 2.732030 0.926024 0.428825
7.007090 13.351000 2.732030 0.818073 0.163991
7.779380 4.802830 -2.635110 0.877097 0.531132
8.877510 9.414400 0.629145 0.830606 0.112164
8.143620 8.594050 5.336390 0.777683 0.118206
4.882420 1.892710 -1.611210 0.800912 0.560380
5.721610 5.942940 -4.068520 0.840644 0.512327
5.721610 5.942940 -4.068520 0.851104 0.515456
9.359700 3.932700 0.700093 0.917475 0.541870
8.343780 4.508730 5.386680 0.764856 0.074998
9.359700 3.932700 0.700093 0.813724 0.053923
8.143620 8.594050 5.336390 0.745044 0.111100
3.025500 5.370740 8.006780 0.683159 0.149542
8.343780 4.508730 5.386680 0.706472 0.087783
7.779380 4.802830 -2.635110 0.845531 0.546831
7.779380 4.802830 -2.635110 0.672987 0.000000
9.359700 3.932700 0.700093 0.694191 0.036001
-10.463600 9.483890 0.265375 0.688238 0.364190
-7.354710 14.593400 1.335290 0.745462 0.329442
-7.162500 14.368600 3.255770 0.736771 0.309875
-10.380700 3.531070 1.606640 0.621004 0.365234
-9.985840 3.932740 4.151280 0.618655 0.336613
-10.380700 3.531070 1.606640 0.636975 0.482521
-9.985840 3.932740 4.151280 0.615491 0.501577
-8.778530 5.018070 6.314190 0.596701 0.524704
-3.642150 5.850230 8.110180 0.593684 0.585282
-1.477440 7.413840 8.524390 0.578526 0.610910
-6.137360 15.636500 0.264075 0.765897 0.335252
3 0 1 2
3 3 4 2
3 3 2 1
3 5 6 7
3 8 6 5
3 9 10 11
3 0 2 12
3 13 14 15
3 0 16 17
3 18 19 16
3 16 0 12
3 16 20 18
3 21 22 16
3 12 21 16
3 16 22 23
3 15 24 25
3 17 26 0
3 25 5 15
3 27 15 28
3 29 5 7
3 20 16 8
3 28 15 14
3 15 5 13
3 5 29 13
3 23 8 16
3 30 31 32
3 33 34 35
3 35 32 33
3 36 32 35
3 30 32 37
3 32 36 37
3 35 38 39
3 35 39 36
3 40 41 42
3 43 44 45
3 45 46 43
3 47 22 21
3 48 44 43
3 49 50 43
3 51 52 22
3 53 54 55
3 43 50 48
3 56 57 51
3 58 12 2
3 59 60 61
3 62 63 64
3 65 66 67
3 68 66 65
3 69 70 68
3 68 70 66
3 65 67 71
3 72 69 68
3 73 74 75
3 76 73 75
3 73 77 74
3 78 79 80
3 13 81 82
3 42 13 82
3 83 39 38
3 83 38 84
3 13 42 14
3 85 14 86
3 83 84 87
3 14 42 86
3 88 89 90
3 86 42 41
3 4 3 91
3 92 4 91
3 35 93 38
3 94 95 96
3 97 98 99
3 100 101 102
3 99 103 97
3 94 96 104
3 105 106 107
3 108 96 109
3 110 111 112
3 110 95 111
3 95 110 96
3 113 114 115
3 109 96 110
3 31 95 94
3 72 116 117
3 72 68 118
3 119 118 68
3 117 69 72
3 118 120 72
3 120 118 23
3 121 61 122
3 122 123 121
3 123 124 121
3 22 52 125
3 126 127 128
3 129 127 126
3 52 51 57
3 130 131 132
3 133 134 135
3 136 137 138
3 139 140 13
3 141 13 140
3 142 143 144
3 145 131 146
3 143 145 144
3 147 143 142
3 148 130 132
3 132 149 148
3 131 145 136
3 150 136 145
3 145 143 150
3 143 147 151
3 152 151 147
3 149 132 153
3 154 153 132
3 132 131 138
3 136 138 131
3 155 150 143
3 156 157 158
3 159 67 160
3 161 67 159
3 67 162 163
3 157 164 165
3 129 165 164
3 163 71 67
3 71 163 166
3 167 168 169
3 170 168 167
3 171 158 160
3 158 159 160
3 171 160 172
3 172 173 171
3 158 171 174
3 67 66 160
3 159 158 157
3 157 175 159
3 176 177 175
3 175 157 176
3 127 164 178
3 171 173 179
3 66 70 180
3 164 127 129
3 166 163 181
3 176 157 165
3 182 176 165
3 183 184 185
3 45 185 184
3 186 187 188
3 189 183 61
3 185 45 44
3 188 190 186
3 190 188 191
3 192 193 194
3 195 196 193
3 196 195 197
3 195 63 198
3 198 197 195
3 193 196 194
3 199 200 184
3 201 199 184
3 202 201 184
3 200 45 184
3 200 199 203
3 201 202 204
3 190 205 206
3 207 208 209
3 183 185 61
3 122 61 185
3 60 208 189
3 61 60 189
3 45 205 46
3 210 46 205
3 190 210 205
3 208 60 211
3 191 210 190
3 211 212 209
3 209 208 211
3 213 214 215
3 213 216 214
3 216 213 88
3 217 218 215
3 219 220 221
3 218 213 215
3 220 219 222
3 223 222 219
3 219 215 224
3 224 223 219
3 214 224 215
3 222 223 225
3 226 227 228
3 228 224 226
3 229 226 224
3 224 214 230
3 230 229 224
3 213 218 79
3 79 78 213
3 218 231 232
3 232 79 218
3 231 233 232
3 234 235 222
3 222 225 234
3 236 234 225
3 237 238 239
3 229 230 240
3 90 241 216
3 88 90 216
3 242 235 243
3 244 229 240
3 244 238 229
3 245 246 247
3 248 249 250
3 251 252 253
3 252 251 254
3 255 251 256
3 248 255 249
3 255 257 251
3 255 248 97
3 258 98 259
3 252 100 245
3 113 257 255
3 97 113 255
3 246 245 100
3 100 252 260
3 257 113 115
3 260 101 100
3 261 170 262
3 112 170 263
3 111 170 112
3 259 248 264
3 256 253 265
3 253 256 251
3 248 259 98
3 257 266 251
3 248 98 97
3 252 254 267
3 267 260 252
3 266 257 268
3 268 269 266
3 270 239 238
3 238 244 270
3 271 270 244
3 272 198 273
3 274 234 236
3 273 275 276
3 198 275 273
3 35 34 277
3 244 240 278
3 244 278 279
3 234 243 235
3 280 281 282
3 283 281 280
3 284 280 282
3 284 285 286
3 284 287 288
3 286 287 284
3 289 290 291
3 292 293 294
3 295 296 297
3 291 290 296
3 296 295 291
3 282 281 298
3 288 299 280
3 284 288 280
3 300 286 285
3 300 301 302
3 288 303 299
3 286 300 304
3 302 304 300
3 301 305 302
3 306 302 305
3 307 308 309
3 310 311 312
3 313 307 309
3 314 313 309
3 313 315 307
3 316 317 318
3 319 318 317
3 315 313 320
3 320 321 315
3 313 316 322
3 322 320 313
3 318 322 316
3 317 310 319
3 312 319 310
3 311 323 312
3 324 312 323
3 325 326 327
3 326 328 327
3 329 330 331
3 332 333 334
3 335 332 334
3 336 337 338
3 339 338 337
3 325 327 340
3 340 341 342
3 342 325 340
3 335 334 343
3 343 344 335
3 345 343 334
3 334 336 345
3 346 345 336
3 338 346 336
3 22 125 23
3 8 23 6
3 6 23 118
3 111 347 170
3 348 349 350
3 351 326 352
3 133 6 134
3 353 134 6
3 6 118 77
3 77 353 6
3 118 74 77
3 354 355 95
3 111 95 355
3 13 141 81
3 141 354 95
3 95 81 141
3 347 168 170
3 356 170 167
3 357 196 358
3 197 358 196
3 63 62 275
3 275 198 63
3 170 356 262
3 262 356 359
3 359 106 262
3 356 197 359
3 197 198 360
3 360 359 197
3 32 31 361
3 94 361 31
3 359 107 106
3 359 360 362
3 34 363 277
3 351 328 326
3 364 365 366
3 366 365 367
3 366 368 294
3 366 294 293
3 290 289 369
3 289 370 369
3 369 370 371
3 372 373 374
3 375 373 372
3 364 376 375
3 375 376 377
3 378 379 380
3 375 365 364
3 379 381 380
3 382 383 384
3 371 370 385
3 365 386 367
3 289 382 370
3 369 371 387
3 375 377 373
3 364 366 388
3 366 293 389
3 388 366 389
3 390 369 391
3 390 290 369
3 392 369 387
3 388 389 393
3 393 389 394
3 395 390 391
3 396 388 393
3 397 395 398
3 398 395 391
3 376 399 377
3 349 328 350
3 388 400 364
3 401 388 396
3 396 393 402
3 397 398 403
3 404 397 403
3 405 392 406
3 407 405 406
3 387 406 392
3 376 408 399
3 409 410 349
3 349 410 328
3 328 410 407
3 328 407 327
3 327 407 406
3 386 411 412
3 411 382 413
3 412 411 413
3 380 381 411
3 381 414 411
3 411 415 382
3 411 414 415
3 382 415 383
3 372 374 416
3 416 330 417
3 416 374 330
3 417 329 418
3 417 330 329
3 418 329 419
3 420 418 419
3 367 386 421
3 421 386 412
3 413 382 289
